<?xml version="1.0"?>
<svg width="313.817" height="313.817" xmlns="http://www.w3.org/2000/svg" xmlns:svg="http://www.w3.org/2000/svg">
 <defs>
  <style>.a{fill:#211715;}.b{fill:#aaa;}.c{fill:#ffffff;}.d{fill:#7abee6;}</style>
 </defs>
 <g class="layer">
  <title>Layer 1</title>
  <path class="a" d="m224.15,239.16c9.79,0 19.59,-0.03 29.38,-0.05q4.06,0 8.12,0c3.09,0 3.1,-4.8 0,-4.8q-15.98,0 -31.96,0.04q-2.77,0 -5.54,0.01c-3.09,0 -3.09,4.8 0,4.8z" id="svg_1"/>
  <path class="b" d="m102.52,113.36c-7.49,-0.41 -12.5,-1.69 -17.9,-5.92c-5.57,-4.36 -9.63,-9.56 -10.46,-16.58c-1.82,-15.46 2.62,-34.31 7.61,-48.97c4.05,-11.89 9.51,-23.28 20.29,-31.17c10.72,-7.84 29.58,-11.27 40.72,-5.02l8.13,1.81c9.07,1.47 16.12,7.02 20.63,15.02c3.44,6.11 5.25,13.34 6.78,20.18c1.7,7.58 3.25,14.9 5.77,22.25c2.45,7.12 4.74,14.27 3.85,21.93a23.98,23.98 0 0 1 -6.11,13.59c-2.63,2.92 -9.8,8.16 -15.35,10.78c0,0 -19.14,4.35 -22.7,4.36c-14.46,0 -41.26,-2.26 -41.26,-2.26z" id="svg_2"/>
  <path class="c" d="m97.66,103.93a48.67,48.67 0 0 1 -5.74,-13.24a58.33,58.33 0 0 1 5.05,-19.46c2.15,-4.46 5.77,-8.52 9.74,-12.52l14.33,-0.8c11.06,-2.73 17.1,-8.64 24.57,-16.47c10.96,5.06 17.62,15.46 21.04,23.51c0.42,0.99 1.13,3.45 1.54,4.87l2.29,-1.86a6.17,6.17 0 0 1 4.49,-1.64a5.75,5.75 0 0 1 5.15,2.92c1.74,3.07 1.65,8.73 0.46,12.23c-0.85,2.47 -2.23,6.26 -5.53,8.97a6.62,6.62 0 0 1 -5.87,1.37a47.63,47.63 0 0 1 -8.8,16.8a32.82,32.82 0 0 1 -10.38,8.77l0,5.09a9.4,9.4 0 0 0 0.4,3.33a8.1,8.1 0 0 0 2.43,3.53c2.47,1.99 5,2.94 8.12,4.11l3.65,1.44c-8.42,5.52 -22.13,8.63 -33.78,8.88c-11.49,-0.25 -25.03,-3.27 -33.46,-8.66l4.2,-1.66l0.69,-0.26a25.21,25.21 0 0 0 7.43,-3.85a8.09,8.09 0 0 0 2.43,-3.53a9.4,9.4 0 0 0 0.4,-3.33c0,-1.69 0,-3.05 0,-4.16a36.08,36.08 0 0 1 -11.48,-9.7a45.46,45.46 0 0 1 -3.37,-4.68z" id="svg_3"/>
  <path class="a" d="m143.99,3.62c-9.43,-5.18 -21.6,-4.2 -31.46,-0.83a44.87,44.87 0 0 0 -14.1,7.74a51.04,51.04 0 0 0 -11.4,13.56a88.87,88.87 0 0 0 -7.19,16.06a174.91,174.91 0 0 0 -5.15,17.58a125.68,125.68 0 0 0 -3.12,19.53a78.13,78.13 0 0 0 -0.16,9.19a34.53,34.53 0 0 0 1.27,8.94c1.99,6.24 6.57,11.19 11.81,14.93c5.35,3.83 11.57,5.07 18.03,5.43c3.08,0.18 3.07,-4.62 0,-4.8c-5.02,-0.28 -9.9,-1.12 -14.22,-3.84a27.22,27.22 0 0 1 -10.23,-11.01c-2.25,-4.8 -2.07,-10.7 -1.86,-15.88a106.89,106.89 0 0 1 2.35,-17.81a168.83,168.83 0 0 1 4.64,-17.23a103.07,103.07 0 0 1 5.93,-14.96c4.75,-9.34 11.79,-17.41 21.55,-21.62a46.04,46.04 0 0 1 15.93,-3.69c5.1,-0.23 10.42,0.36 14.96,2.86c2.7,1.49 5.13,-2.66 2.42,-4.15z" id="svg_4"/>
  <path class="a" d="m150.27,9.82a26.21,26.21 0 0 1 16.99,10.48c4.96,6.82 6.99,15.18 8.8,23.29c1.03,4.59 2.03,9.19 3.23,13.74c1.17,4.42 2.72,8.71 4.08,13.07c2.45,7.88 3.84,16.68 -0.32,24.25a25.6,25.6 0 0 1 -7.15,7.89a60.33,60.33 0 0 1 -10.63,6.65a2.42,2.42 0 0 0 -0.86,3.28a2.45,2.45 0 0 0 3.28,0.86a60.99,60.99 0 0 0 10,-6.17a35.89,35.89 0 0 0 7.78,-7.39c5.56,-7.55 5.92,-17.18 3.81,-26.02c-1.11,-4.69 -2.9,-9.17 -4.26,-13.79c-1.4,-4.73 -2.52,-9.54 -3.59,-14.35c-2.01,-8.98 -3.9,-18.37 -8.98,-26.21a31.25,31.25 0 0 0 -20.9,-14.2a2.47,2.47 0 0 0 -2.95,1.67a2.42,2.42 0 0 0 1.68,2.95l-0.01,0z" id="svg_5"/>
  <path class="a" d="m121.87,37.49c-4.13,8.25 -11.7,14.18 -18,20.69a50.85,50.85 0 0 0 -8.37,10.67a50.52,50.52 0 0 0 -5.03,15.05a93.67,93.67 0 0 0 -1.39,18.69c0.06,3.09 4.86,3.1 4.8,0c-0.19,-10.24 0.66,-21.3 5.38,-30.59c4.03,-7.93 11.5,-13.66 17.57,-19.95a50.36,50.36 0 0 0 9.18,-12.14c1.38,-2.75 -2.76,-5.18 -4.14,-2.42z" id="svg_6"/>
  <path class="a" d="m145.75,37.82c-3.69,3.88 -7.34,7.9 -11.59,11.18a37.1,37.1 0 0 1 -13.76,6.6c-2.99,0.75 -1.72,5.38 1.28,4.63a41.28,41.28 0 0 0 15.12,-7.25a109.07,109.07 0 0 0 12.35,-11.77c2.13,-2.23 -1.26,-5.63 -3.4,-3.39z" id="svg_7"/>
  <path class="a" d="m145.07,43.84a38.7,38.7 0 0 1 15.15,14.06a49.75,49.75 0 0 1 4.24,8.01c-0.16,-0.41 0.13,0.37 0.16,0.44c0.08,0.24 0.16,0.48 0.24,0.72c0.2,0.63 0.4,1.27 0.58,1.9q0.38,1.28 0.73,2.57c0.81,2.98 5.44,1.71 4.63,-1.27a52.48,52.48 0 0 0 -6.62,-15.09a43.33,43.33 0 0 0 -16.69,-15.49a2.46,2.46 0 0 0 -3.28,0.86a2.42,2.42 0 0 0 0.86,3.29z" id="svg_8"/>
  <path class="a" d="m123.13,103.94a16.55,16.55 0 0 0 7.96,1.87a13.03,13.03 0 0 0 8.13,-2.4a2.4,2.4 0 0 0 0,-3.39a2.48,2.48 0 0 0 -3.4,0c0.75,-0.58 0.25,-0.19 0.06,-0.07q-0.24,0.15 -0.48,0.28c-0.23,0.11 -0.77,0.23 -0.09,0.06c-0.22,0.05 -0.44,0.16 -0.66,0.23a12.06,12.06 0 0 1 -1.86,0.42c0.35,-0.05 0.17,-0.02 -0.08,0c-0.18,0.02 -0.37,0.03 -0.55,0.04q-0.66,0.04 -1.32,0.04q-0.59,0 -1.18,-0.05c-0.18,-0.01 -0.36,-0.03 -0.54,-0.05c-0.68,-0.06 0.48,0.09 -0.16,-0.02a14.05,14.05 0 0 1 -1.73,-0.39c-0.25,-0.07 -0.48,-0.16 -0.72,-0.24c-0.58,-0.2 0.44,0.22 -0.08,-0.03c-0.3,-0.15 -0.59,-0.29 -0.88,-0.45a2.4,2.4 0 0 0 -2.42,4.15z" id="svg_9"/>
  <path class="a" d="m129.77,85.41a36.18,36.18 0 0 1 0.85,3.94l-0.09,-0.64a2.4,2.4 0 0 1 0.01,0.54l0.09,-0.64a1.26,1.26 0 0 1 -0.06,0.25l0.24,-0.58a0.92,0.92 0 0 1 -0.09,0.16l0.38,-0.48a0.85,0.85 0 0 1 -0.13,0.12l0.49,-0.37a2.51,2.51 0 0 1 -0.32,0.16l0.58,-0.24a2.25,2.25 0 0 1 -0.53,0.15l0.64,-0.09a2.14,2.14 0 0 1 -0.49,0l0.63,0.09c-0.18,-0.03 -0.36,-0.07 -0.55,-0.1a1.82,1.82 0 0 0 -0.95,-0.05a1.8,1.8 0 0 0 -0.9,0.29a2.4,2.4 0 0 0 -0.86,3.28a2.31,2.31 0 0 0 1.44,1.1c0.45,0.07 0.9,0.18 1.36,0.2a4.43,4.43 0 0 0 2.06,-0.49a3.05,3.05 0 0 0 1.66,-2a4.87,4.87 0 0 0 -0.01,-2.11c-0.21,-1.27 -0.5,-2.52 -0.82,-3.77a2.4,2.4 0 1 0 -4.63,1.28z" id="svg_10"/>
  <path class="a" d="m109.4,74.09c-0.67,2.13 -0.26,7.04 3.78,7.47c5.35,-0.01 5.65,-5.94 3.87,-8.74c-1.47,-2.29 -5.79,-3.25 -7.65,1.27z" id="svg_11"/>
  <path class="a" d="m152.17,74.26c0.65,2.13 0.2,7.04 -3.84,7.44c-5.34,-0.05 -5.6,-5.99 -3.79,-8.77c1.48,-2.28 5.81,-3.21 7.63,1.33z" id="svg_12"/>
  <path class="a" d="m89.61,91.36a50.98,50.98 0 0 0 11.27,20.74c4.96,5.52 11.29,9.81 18.73,10.96a2.48,2.48 0 0 0 2.95,-1.68a2.42,2.42 0 0 0 -1.68,-2.95c-13.81,-2.13 -23.2,-15.69 -26.64,-28.34c-0.81,-2.98 -5.44,-1.72 -4.63,1.27z" id="svg_13"/>
  <path class="a" d="m167.71,87.84a46.06,46.06 0 0 1 -8.45,18.35a34.45,34.45 0 0 1 -7.35,7.23a32.1,32.1 0 0 1 -8.43,4.06c-2.93,0.95 -1.67,5.59 1.27,4.63a36.63,36.63 0 0 0 9.59,-4.55a39.18,39.18 0 0 0 8.31,-7.98a50.67,50.67 0 0 0 9.69,-20.46c0.67,-3.01 -3.96,-4.3 -4.63,-1.27l0,-0.01z" id="svg_14"/>
  <path class="a" d="m172.18,69.66a4.08,4.08 0 0 1 3.72,-0.8a3.66,3.66 0 0 1 1.42,0.66c-0.21,-0.16 0.28,0.3 0.28,0.29c0.48,0.52 -0.2,-0.33 0.16,0.19c1.43,2.07 1.42,5.03 1.22,7.43a18.96,18.96 0 0 1 -2.24,7.08c-1.15,2.18 -3.43,5.53 -6.33,5.13a2.48,2.48 0 0 0 -2.95,1.68a2.42,2.42 0 0 0 1.67,2.95c7.49,1.01 11.82,-6.1 13.8,-12.3c1.63,-5.08 1.73,-13.07 -3.09,-16.51a9.03,9.03 0 0 0 -11.06,0.81c-2.31,2.06 1.1,5.45 3.4,3.39z" id="svg_15"/>
  <path class="d" d="m204.71,160.65a78.8,78.8 0 0 1 6.89,15.2c3.29,9.78 5.45,18.63 8.5,30.94a92.77,92.77 0 0 1 3.28,20.59c0.44,10.12 -4.87,17.72 -13.09,20.06l-14.97,3.07l-28.78,-13.91c-20.28,0.02 -45.31,0.04 -65.31,0.05l-32.58,13.86l-17.19,-3.18a4.66,4.66 0 0 1 -0.94,-0.23c-0.06,-0.02 -0.12,-0.04 -0.18,-0.06c-7.18,-2.81 -10.49,-7.63 -10.05,-17.75c0.36,-8.33 2.91,-20.33 4.2,-25.56c3.27,-13.2 5.39,-20.26 8.16,-29.75a101.94,101.94 0 0 1 6.83,-16.19c4.22,-7.52 8.72,-10.93 15.56,-14.39c3.13,-1.58 10.93,-4.72 21.96,-8.53c8.41,5.53 22.17,8.63 33.81,8.89c11.77,-0.26 25.66,-3.43 34.05,-9.06a169.13,169.13 0 0 1 24.6,11.45a44.73,44.73 0 0 1 14.64,13.59c0.2,0.28 0.4,0.58 0.61,0.91z" id="svg_16"/>
  <path class="a" d="m108.53,239.04l55.61,-0.03c3.09,0 3.1,-4.8 0,-4.8l-55.61,0.03c-3.08,0 -3.09,4.8 0,4.8z" id="svg_17"/>
  <path class="a" d="m59.32,221.08c0.26,-0.11 0.3,-0.12 0.1,-0.04q0.22,-0.1 0.45,-0.19q0.4,-0.16 0.8,-0.31q0.87,-0.33 1.76,-0.61q1.65,-0.54 3.34,-0.95q1.65,-0.4 3.33,-0.68c0.31,-0.05 0.62,-0.1 0.93,-0.14c-0.47,0.06 0.19,-0.02 0.28,-0.03c0.6,-0.07 1.19,-0.12 1.79,-0.16a2.4,2.4 0 1 0 0,-4.8a45.99,45.99 0 0 0 -15.21,3.77a2.41,2.41 0 0 0 -0.86,3.28a2.48,2.48 0 0 0 3.28,0.86l0.01,0z" id="svg_18"/>
  <path class="a" d="m74.06,170.24c0.69,11.04 1.54,22.06 3.17,33a2.42,2.42 0 0 0 2.95,1.68a2.46,2.46 0 0 0 1.68,-2.95c-1.57,-10.52 -2.34,-21.13 -3,-31.73c-0.19,-3.07 -4.99,-3.09 -4.8,0z" id="svg_19"/>
  <path class="a" d="m182.28,175.4c-0.46,15.33 -2.31,30.51 -3.92,45.75a2.42,2.42 0 0 0 2.4,2.4a2.45,2.45 0 0 0 2.4,-2.4c1.6,-15.24 3.46,-30.42 3.92,-45.75c0.09,-3.09 -4.71,-3.09 -4.8,0z" id="svg_20"/>
  <path class="c" d="m169.9,262.38c-0.87,-4.32 -1.7,-8.37 -2.43,-11.99l-7.67,0s-34.69,0 -63.79,0c-2.92,15.05 -8.01,39.46 -12.24,61.03l95.93,0c-2.82,-14.51 -6.65,-33.49 -9.8,-49.04z" id="svg_21"/>
  <path class="a" d="m169.69,273.71c2.59,12.78 5.2,25.55 7.69,38.35a2.42,2.42 0 0 0 2.95,1.67a2.45,2.45 0 0 0 1.68,-2.95c-2.49,-12.8 -5.1,-25.57 -7.69,-38.35a2.4,2.4 0 1 0 -4.63,1.28z" id="svg_22"/>
  <path class="a" d="m83.77,313.82l95.92,0c3.09,0 3.1,-4.8 0,-4.8l-95.92,0c-3.08,0 -3.09,4.8 0,4.8z" id="svg_23"/>
  <path class="a" d="m86.09,312.06c3.01,-15.35 6.15,-30.66 9.24,-45.98q1.1,-5.47 2.19,-10.94a2.46,2.46 0 0 0 -1.67,-2.95a2.42,2.42 0 0 0 -2.96,1.68c-2.87,14.55 -5.88,29.08 -8.8,43.63q-1.33,6.64 -2.63,13.28a2.46,2.46 0 0 0 1.67,2.95a2.42,2.42 0 0 0 2.95,-1.67l0.01,0z" id="svg_24"/>
  <path class="a" d="m108.36,252.79l51.44,0c3.09,0 3.09,-4.8 0,-4.8l-51.44,0c-3.09,0 -3.09,4.8 0,4.8z" id="svg_25"/>
  <path class="a" d="m74.53,302.92q-5.3,-0.61 -10.57,-1.48l1.44,3.52q8.69,-15.71 17.38,-31.42c1.49,-2.71 -2.65,-5.13 -4.15,-2.42q-8.67,15.72 -17.38,31.42c-0.68,1.23 -0.15,3.26 1.44,3.52q5.9,0.98 11.84,1.66a2.41,2.41 0 0 0 2.4,-2.4a2.46,2.46 0 0 0 -2.4,-2.4z" id="svg_26"/>
  <path class="a" d="m2.32,239.16c11.68,0 23.36,-0.05 35.04,-0.05c3.09,0 3.1,-4.8 0,-4.8c-11.68,0 -23.36,0.05 -35.04,0.05c-3.09,0 -3.1,4.8 0,4.8z" id="svg_27"/>
  <path class="a" d="m210.93,249.75c9.26,-2.72 14.67,-11.24 14.87,-20.67c0.23,-11.01 -3.11,-21.96 -5.78,-32.52c-2.62,-10.37 -5.34,-20.84 -9.8,-30.6a48.68,48.68 0 0 0 -19.54,-21.88c-8.78,-5.24 -18.32,-9.01 -27.82,-12.71a2.42,2.42 0 0 0 -2.95,1.67a2.46,2.46 0 0 0 1.68,2.96a206.53,206.53 0 0 1 23.83,10.62c7.8,4.24 14.55,10 18.77,17.92c4.64,8.7 7.29,18.36 9.8,27.84c1.4,5.33 2.72,10.69 4.04,16.05a98.75,98.75 0 0 1 2.62,14.03c0.48,5.03 0.79,10.24 -1.59,14.88a15.3,15.3 0 0 1 -9.41,7.79c-2.96,0.87 -1.7,5.5 1.28,4.63l0,-0.01z" id="svg_28"/>
  <path class="a" d="m95.8,136.95c7.99,5.19 17.79,7.5 27.13,8.64a73.12,73.12 0 0 0 29,-2.62a51.09,51.09 0 0 0 14.15,-6.2c2.56,-1.7 0.16,-5.86 -2.42,-4.15c-7.24,4.8 -16.24,7.09 -24.77,8.15a69.59,69.59 0 0 1 -27.54,-2.32a47.49,47.49 0 0 1 -13.12,-5.65c-2.6,-1.69 -5,2.47 -2.43,4.15z" id="svg_29"/>
  <path class="a" d="m52.1,245.02a13.2,13.2 0 0 1 -4.99,-2.42a9.99,9.99 0 0 1 -3.15,-3.96c-1.74,-3.69 -1.43,-8.72 -1.02,-12.9c0.99,-10.18 3.48,-20.19 6.08,-30.06q1.88,-7.16 3.96,-14.27c1.29,-4.42 2.54,-8.82 4.26,-13.1a62.36,62.36 0 0 1 6.64,-13a30.02,30.02 0 0 1 10.42,-8.81c8.26,-4.5 17.58,-7.15 26.59,-10.49a2.47,2.47 0 0 0 1.68,-2.95a2.42,2.42 0 0 0 -2.95,-1.67c-8.52,3.14 -17.34,5.79 -25.52,9.81a38.11,38.11 0 0 0 -11.89,8.55c-3.54,3.99 -5.95,8.73 -8.05,13.59c-4.01,9.24 -6.56,19.06 -9.16,28.77c-2.8,10.46 -5.38,20.98 -6.65,31.75c-0.66,5.64 -1.05,11.66 1.36,16.96a14.41,14.41 0 0 0 4.01,5.18a16.83,16.83 0 0 0 7.1,3.65a2.47,2.47 0 0 0 2.96,-1.67a2.42,2.42 0 0 0 -1.68,-2.96z" id="svg_30"/>
  <path class="c" d="m177.85,270.76c-0.54,0.4 -1.08,0.78 -1.6,1.11c-1.22,0.78 -4.04,1.76 -5.91,0.82a3.56,3.56 0 0 1 -1.96,-2.71l-0.15,0.1c-2.35,1.57 -6.24,2.5 -8.52,0.7a5.21,5.21 0 0 1 -0.85,-6.31a8.1,8.1 0 0 1 0.79,-1.25c-1.24,0.57 -3.58,1.34 -5.09,-1.43c-1.01,-1.84 -0.37,-4.8 1.78,-7.1c0.82,-0.87 2.48,-3.07 4.16,-4.71q0.54,-0.52 1.09,-1.03l-1.61,-0.16a3.97,3.97 0 0 1 -3.3,-1.97a4.7,4.7 0 0 1 -0.19,-3.37c0.68,-2.22 4.24,-4.8 7.94,-7.01a30.38,30.38 0 0 1 11.04,-4.2a37.84,37.84 0 0 1 10.86,-0.41c3.68,0.38 6.35,1.95 9.06,3.55a24.14,24.14 0 0 1 6.11,6.08a17.95,17.95 0 0 1 2.53,8.9c-0.11,4.8 -1.2,7.56 -4.01,10.82a80.99,80.99 0 0 1 -6.39,6.47c-2.63,2.32 -5.25,2.75 -7.21,2.03c-1.58,-0.58 -1.91,-3.48 -1.35,-4.66l0.11,-0.22l-0.06,0.04c-0.59,0.46 -1.1,0.87 -1.49,1.17c-1.35,1.07 -3.56,3.1 -5.78,4.75z" id="svg_31"/>
  <path class="a" d="m171.82,248.02c-2.87,2.52 -5.63,5.15 -8.37,7.8c-2.42,2.33 -5.29,4.68 -6.83,7.73c-1.64,3.27 -0.86,7.95 2.58,9.75c3.21,1.68 7.33,0.72 10.24,-1.14c2.59,-1.66 0.19,-5.82 -2.42,-4.15a8.37,8.37 0 0 1 -3.25,1.3a8.65,8.65 0 0 1 -1.39,0.04a3.47,3.47 0 0 1 -0.82,-0.21c0.28,0.12 -0.69,-0.48 -0.32,-0.19a2.8,2.8 0 0 1 -0.44,-0.65a3.05,3.05 0 0 1 -0.22,-1.71a5.88,5.88 0 0 1 1.31,-2.35a77.79,77.79 0 0 1 6.01,-6.05c2.39,-2.3 4.81,-4.58 7.31,-6.77a2.42,2.42 0 0 0 0,-3.39a2.45,2.45 0 0 0 -3.39,0l0,-0.01z" id="svg_32"/>
  <path class="a" d="m158.03,261.29c-0.1,0.02 -0.72,0.12 -0.17,0.07a3.91,3.91 0 0 1 -0.53,0.01q-0.26,-0.02 0.1,0.01c-0.23,-0.08 -0.28,-0.08 -0.14,-0.02c0.24,0.15 -0.3,-0.22 -0.07,-0.03a4.18,4.18 0 0 1 -0.41,-0.44l-0.18,-0.31q0.09,0.28 0.01,0.04a3.03,3.03 0 0 1 -0.16,-0.59c0.06,0.4 0.02,-0.37 0.02,-0.38a4.24,4.24 0 0 1 0.24,-1.15a5.56,5.56 0 0 1 0.64,-1.26a22.33,22.33 0 0 1 1.73,-2.09a86.96,86.96 0 0 1 10.73,-10.27a2.42,2.42 0 0 0 0,-3.39a2.45,2.45 0 0 0 -3.4,0a88,88 0 0 0 -12.45,12.3c-1.82,2.3 -3,5.57 -1.85,8.43a5.88,5.88 0 0 0 7.17,3.7c2.98,-0.79 1.71,-5.42 -1.28,-4.63z" id="svg_33"/>
  <path class="a" d="m180.14,253.01c-3.1,2.75 -6.26,5.45 -9.24,8.34c-2.64,2.55 -5.92,5.86 -4.69,9.89c1.42,4.6 6.6,4.88 10.34,3.18a23.02,23.02 0 0 0 4.76,-3.34c1.35,-1.11 2.65,-2.28 4.02,-3.37c2.65,-2.12 5.43,-4.1 7.97,-6.36a2.4,2.4 0 0 0 -3.4,-3.4c-1.98,1.76 -4.12,3.36 -6.21,4.99c-2.21,1.72 -4.3,3.6 -6.5,5.32a11.78,11.78 0 0 1 -3.5,2.15c-1,0.3 -2.26,0.48 -2.76,-0.28a0.85,0.85 0 0 1 -0.2,-0.56c0,-0.01 0,-0.34 -0.02,-0.21a3.4,3.4 0 0 1 0.67,-1.43a23.85,23.85 0 0 1 3.21,-3.48c2.9,-2.77 5.94,-5.39 8.94,-8.05a2.4,2.4 0 0 0 -3.39,-3.39z" id="svg_34"/>
  <path class="a" d="m159.98,246.4a1.39,1.39 0 0 1 -1.31,-1.61a1.58,1.58 0 0 1 0.35,-1.09a7.99,7.99 0 0 1 1.41,-1.54a34.93,34.93 0 0 1 8.7,-5.52a29.66,29.66 0 0 1 9.04,-2.37a26.31,26.31 0 0 1 10.39,0.45c4.93,1.48 9.62,5.03 11.7,9.63a14.97,14.97 0 0 1 1.14,8.8a13.47,13.47 0 0 1 -3.5,6.81c-1.08,1.23 -2.22,2.4 -3.39,3.55a20.16,20.16 0 0 1 -3.88,3.37a5.24,5.24 0 0 1 -1.84,0.69a3.82,3.82 0 0 1 -0.94,0.01c0.28,0.04 -0.85,-0.18 -0.45,-0.08c0.25,0.07 0.03,0.43 0,-0.07a6.13,6.13 0 0 1 -0.2,-0.77a1.72,1.72 0 0 1 0.19,-1a2.42,2.42 0 0 0 -1.68,-2.96a2.46,2.46 0 0 0 -2.95,1.68a6.72,6.72 0 0 0 0.25,4.93a5.09,5.09 0 0 0 4.54,3.04c4.21,0.43 7.45,-2.57 10.22,-5.31c2.58,-2.55 5.41,-5.27 6.97,-8.6a19.26,19.26 0 0 0 1.34,-11.69c-1.53,-7.61 -7.43,-13.11 -14.4,-15.99c-4.01,-1.66 -8.6,-1.79 -12.86,-1.36a37.24,37.24 0 0 0 -12.28,3.18a44.24,44.24 0 0 0 -6.4,3.76a19.44,19.44 0 0 0 -5.1,4.69a7,7 0 0 0 -0.7,6.43a6.26,6.26 0 0 0 5.64,3.74c3.08,-0.1 3.09,-4.91 0,-4.8z" id="svg_35"/>
  <path class="a" d="m100.87,229.6c-4.97,-8.9 -10.5,-18.93 -12.58,-22.24a3.01,3.01 0 0 0 -3.16,-1.69a5.77,5.77 0 0 0 -3.09,1.63a2.89,2.89 0 0 0 -0.21,3.51c6.45,10.29 12.54,20.13 15.5,25.06c2.89,4.8 10.87,17.92 14.65,23.95a2.49,2.49 0 0 0 4.3,-2.49c-3.04,-5.69 -9.06,-16.39 -15.41,-27.73z" id="svg_36"/>
  <path class="c" d="m101.69,228.3a16.12,16.12 0 0 0 -4.86,-2.26a15.92,15.92 0 0 0 -3.96,-0.58a39.98,39.98 0 0 0 -5.1,0.43a57.65,57.65 0 0 1 -9.63,0.46c-1.71,-0.1 -4.4,-0.06 -5.81,0.91a21.29,21.29 0 0 0 -5.69,5.42a44.29,44.29 0 0 0 -5.73,11.96c-0.56,1.63 -0.4,4.96 1.02,5.93c2.89,2 9.66,9.24 13.58,11.02a12.54,12.54 0 0 0 4.8,1.17c2.1,0.01 4.7,-1.1 4.66,-4.54a6.84,6.84 0 0 0 4.83,1.53a6.22,6.22 0 0 0 2.89,-0.8a5.54,5.54 0 0 0 2.08,-4.73l-0.03,-0.35c0.33,0.27 0.67,0.54 1.02,0.81a6.16,6.16 0 0 0 7.3,-0.25c0.97,-0.98 2.17,-4.04 1.35,-6.2l-0.12,-0.28c0.21,0.19 0.43,0.38 0.65,0.57a7.34,7.34 0 0 0 3.35,1.44a4.52,4.52 0 0 0 3.51,-0.61a4.71,4.71 0 0 0 1.46,-4.87a13.86,13.86 0 0 0 -2.51,-4.73c-2.15,-3.02 -6.43,-9.04 -9.07,-11.45" id="svg_37"/>
  <path class="a" d="m76.56,253.86a71.06,71.06 0 0 0 5.32,4.93c1.64,1.38 3.31,2.75 5.48,3.15a9.02,9.02 0 0 0 6.84,-1.13a7.81,7.81 0 0 0 2.98,-6.59a2.46,2.46 0 0 0 -2.4,-2.41a2.42,2.42 0 0 0 -2.4,2.41c0.01,0.21 0.01,0.41 0.01,0.62s0.06,-0.14 -0.03,0.24c-0.05,0.21 -0.1,0.41 -0.17,0.62c-0.04,0.1 -0.23,0.52 -0.09,0.24c-0.11,0.21 -0.23,0.41 -0.35,0.62c-0.1,0.16 -0.2,0.24 -0.03,0.05c-0.08,0.1 -0.54,0.46 -0.09,0.16c-0.12,0.08 -0.24,0.15 -0.36,0.21c-0.47,0.27 0.19,0 -0.36,0.15c-0.17,0.05 -0.34,0.09 -0.5,0.14c-0.59,0.18 0.22,0.05 -0.36,0.07c-0.17,0 -0.34,0.01 -0.51,0c-0.25,0 -0.5,-0.02 -0.75,-0.03c-0.21,-0.01 -0.3,-0.02 -0.04,0.02a7.1,7.1 0 0 1 -1.1,-0.28c-0.33,-0.1 0.46,0.27 -0.08,-0.03c-0.16,-0.08 -0.31,-0.16 -0.46,-0.25c-0.27,-0.16 -0.7,-0.46 -0.82,-0.54c-0.51,-0.38 -1.34,-1.1 -1.95,-1.63c-1.52,-1.31 -2.97,-2.7 -4.37,-4.14a2.4,2.4 0 1 0 -3.4,3.4l-0.01,0z" id="svg_38"/>
  <path class="a" d="m83.63,247.41c2.26,2.09 4.55,4.15 6.92,6.12c2.06,1.73 4.25,4.01 7.01,4.48c2.49,0.42 5.52,-0.09 7.32,-2a9.07,9.07 0 0 0 1.85,-8.41a2.46,2.46 0 0 0 -2.95,-1.68a2.42,2.42 0 0 0 -1.68,2.95a3.49,3.49 0 0 1 -0.08,2.53c-0.02,0.06 -0.27,0.73 -0.13,0.41a5.4,5.4 0 0 1 -0.33,0.64c-0.03,0.06 -0.37,0.53 -0.15,0.26c0.28,-0.35 -0.41,0.37 -0.05,0.06c0.26,-0.23 -0.23,0.13 -0.3,0.17c-0.09,0.05 -0.18,0.1 -0.28,0.14q0.32,-0.12 0.07,-0.03a6.17,6.17 0 0 1 -1.26,0.32c0.42,-0.05 -0.28,0 -0.36,0a5.09,5.09 0 0 1 -0.77,-0.04c0.36,0.06 -0.4,-0.11 -0.39,-0.11c-0.59,-0.17 0.14,0.13 -0.41,-0.16a16.21,16.21 0 0 1 -2.31,-1.76q-1.26,-1.02 -2.5,-2.08c-1.98,-1.69 -3.91,-3.43 -5.82,-5.2c-2.27,-2.09 -5.68,1.3 -3.4,3.4l0,-0.01z" id="svg_39"/>
  <path class="a" d="m82.61,258.38a2.12,2.12 0 0 1 -0.76,1.62a3.49,3.49 0 0 1 -1.28,0.35a9.42,9.42 0 0 1 -5.1,-1.52a58.81,58.81 0 0 1 -8.03,-6.72c-1.17,-1.06 -2.34,-2.12 -3.6,-3.09c-0.15,-0.12 -0.32,-0.24 -0.48,-0.36c-0.24,-0.2 0.2,0.3 -0.01,-0.02a1.04,1.04 0 0 1 -0.14,-0.37a6.64,6.64 0 0 1 -0.17,-2.27a24.18,24.18 0 0 1 1.91,-5.36a39.31,39.31 0 0 1 3.05,-5.65a18.92,18.92 0 0 1 4.47,-4.89a5.52,5.52 0 0 1 2.26,-1.22a11.83,11.83 0 0 1 2.82,-0.16a92.34,92.34 0 0 0 12.3,-0.68c3.78,-0.38 8.3,-0.06 11.08,2.88a83.28,83.28 0 0 1 6.97,8.93c1.17,1.64 2.93,3.54 3.12,5.63c0.2,2.2 -1.54,2.45 -3.27,1.86a8.98,8.98 0 0 1 -2.88,-2.06q-1.64,-1.44 -3.24,-2.9c-2.27,-2.05 -4.52,-4.1 -6.84,-6.09a2.46,2.46 0 0 0 -3.4,0a2.42,2.42 0 0 0 0,3.39c2.38,2.04 4.69,4.14 7.01,6.24c2.21,2 4.5,4.63 7.3,5.76c2.62,1.05 5.87,1.21 8.07,-0.85a7.39,7.39 0 0 0 1.72,-7.4c-0.71,-2.44 -2.34,-4.47 -3.8,-6.5c-1.42,-1.97 -2.87,-3.93 -4.37,-5.84a24.06,24.06 0 0 0 -4.42,-4.86a17.51,17.51 0 0 0 -6.75,-2.8a18.28,18.28 0 0 0 -4.68,-0.33c-0.7,0.04 -1.39,0.1 -2.08,0.18c-0.39,0.04 -0.78,0.09 -1.16,0.14c0.18,-0.02 -1.55,0.2 -0.91,0.12a59.99,59.99 0 0 1 -7.23,0.46c-2.43,0 -4.92,-0.33 -7.3,0.42c-2.54,0.8 -4.92,3.04 -6.64,5c-3.53,4.01 -5.7,9.16 -7.41,14.15a9.68,9.68 0 0 0 0.22,6.96a5.68,5.68 0 0 0 1.98,2.27c0.31,0.23 -0.46,-0.38 0.09,0.06q0.18,0.15 0.36,0.3c0.4,0.33 0.8,0.68 1.2,1.03c3.53,3.12 6.93,6.89 11.1,9.16a12.99,12.99 0 0 0 8.3,1.63a6.47,6.47 0 0 0 5.25,-5.33a2.48,2.48 0 0 0 -1.67,-2.95a2.42,2.42 0 0 0 -2.95,1.67l-0.01,0.01z" id="svg_40"/>
  <path class="a" d="m110.42,118.54c-0.01,1.03 -0.02,2.05 -0.08,3.08c-0.04,0.66 -0.08,1.32 -0.15,1.97a4.37,4.37 0 0 1 -0.14,0.76c-0.05,0.18 -0.1,0.36 -0.15,0.54c-0.12,0.3 -0.14,0.36 -0.05,0.18a8.49,8.49 0 0 1 -0.86,1.56q-0.24,0.35 -0.08,0.11c-0.11,0.13 -0.22,0.25 -0.34,0.37a6.97,6.97 0 0 1 -0.58,0.53q0.19,-0.14 -0.17,0.12q-0.22,0.16 -0.44,0.31q-0.43,0.3 -0.89,0.57c-0.52,0.32 -1.05,0.6 -1.6,0.87c-2.45,1.2 -5.47,2.21 -8.24,3.3a2.47,2.47 0 0 0 -1.68,2.96a2.42,2.42 0 0 0 2.95,1.67a96.79,96.79 0 0 0 10.09,-4.14a17.55,17.55 0 0 0 3.77,-2.61a10.87,10.87 0 0 0 2.55,-4.01c0.99,-2.49 0.87,-5.49 0.89,-8.14a2.4,2.4 0 1 0 -4.8,0z" id="svg_41"/>
  <path class="a" d="m147.29,118.54c0.01,2.65 -0.1,5.65 0.88,8.14a10.87,10.87 0 0 0 2.56,4.01a17.52,17.52 0 0 0 3.76,2.61a96.88,96.88 0 0 0 10.09,4.14a2.42,2.42 0 0 0 2.95,-1.67a2.46,2.46 0 0 0 -1.67,-2.96c-2.77,-1.09 -5.81,-2.11 -8.25,-3.3c-0.54,-0.27 -1.08,-0.55 -1.6,-0.87c-0.3,-0.18 -0.6,-0.37 -0.89,-0.57q-0.22,-0.15 -0.44,-0.31q-0.35,-0.26 -0.17,-0.12a6.79,6.79 0 0 1 -0.57,-0.53q-0.18,-0.18 -0.35,-0.37c0.11,0.16 0.09,0.12 -0.08,-0.11a8.28,8.28 0 0 1 -0.85,-1.56c0.08,0.18 0.06,0.12 -0.05,-0.18c-0.06,-0.18 -0.11,-0.36 -0.15,-0.54a4.46,4.46 0 0 1 -0.14,-0.76c-0.08,-0.65 -0.11,-1.31 -0.15,-1.97c-0.06,-1.03 -0.08,-2.05 -0.08,-3.08a2.4,2.4 0 0 0 -4.8,0z" id="svg_42"/>
 </g>
</svg>